<svg width="32" height="32" xmlns="http://www.w3.org/2000/svg" viewBox="0 0 32 32">
  <defs>
    <linearGradient id="heartGradient" x1="0%" y1="0%" x2="100%" y2="100%">
      <stop offset="0%" style="stop-color:#FFB3B3"/>
      <stop offset="100%" style="stop-color:#FF8A8A"/>
    </linearGradient>
  </defs>
  
  <!-- Heart shape made with pixels -->
  <!-- Top left curve -->
  <rect x="8" y="6" width="2" height="2" fill="url(#heartGradient)"/>
  <rect x="6" y="8" width="2" height="2" fill="url(#heartGradient)"/>
  <rect x="6" y="10" width="2" height="2" fill="url(#heartGradient)"/>
  <rect x="8" y="12" width="2" height="2" fill="url(#heartGradient)"/>
  
  <!-- Top right curve -->
  <rect x="22" y="6" width="2" height="2" fill="url(#heartGradient)"/>
  <rect x="24" y="8" width="2" height="2" fill="url(#heartGradient)"/>
  <rect x="24" y="10" width="2" height="2" fill="url(#heartGradient)"/>
  <rect x="22" y="12" width="2" height="2" fill="url(#heartGradient)"/>
  
  <!-- Top horizontal lines -->
  <rect x="10" y="6" width="4" height="2" fill="url(#heartGradient)"/>
  <rect x="18" y="6" width="4" height="2" fill="url(#heartGradient)"/>
  
  <!-- Middle section -->
  <rect x="8" y="8" width="16" height="2" fill="url(#heartGradient)"/>
  <rect x="8" y="10" width="16" height="2" fill="url(#heartGradient)"/>
  <rect x="10" y="12" width="12" height="2" fill="url(#heartGradient)"/>
  <rect x="12" y="14" width="8" height="2" fill="url(#heartGradient)"/>
  <rect x="14" y="16" width="4" height="2" fill="url(#heartGradient)"/>
  
  <!-- Bottom point -->
  <rect x="15" y="18" width="2" height="2" fill="url(#heartGradient)"/>
  
  <!-- Pixel shine effect -->
  <rect x="12" y="8" width="2" height="2" fill="#FFFFFF" opacity="0.6"/>
  <rect x="18" y="8" width="2" height="2" fill="#FFFFFF" opacity="0.6"/>
</svg>
